# xmcd
#
# Track frame offsets:
#	150
#	18937
#	45050
#	63792
#	82300
#	103400
#	122470
#	149765
#	168915
#	192472
#
# Disc length: 2820 seconds
#
# Revision: 1
# Processed by: cddbd v1.5.2PL0 Copyright (c) Steve Scherf et al.
# Submitted via: EZCDAudioConverter 3.1.0.1
#
DISCID=850b020a
DTITLE=김목경 - Rock Me Blues
DYEAR=2004
DGENRE=Blues Rock
TTITLE0=거봐 기타치지 말랬잖아
TTITLE1=멕시코로 가는길
TTITLE2=Sweet Little MaMa.
TTITLE3=경 블루스 (Inst')
TTITLE4=Please Baby Come Back
TTITLE5=웃고있네 (New Version)
TTITLE6=여의도 우먼 (New Version)
TTITLE7=Baby What You Want Me To Do
TTITLE8=처음 그리고 그 다음에 (New Version)
TTITLE9=Satisfy Susie (Warner Chappell Music)
EXTD=
EXTT0=
EXTT1=
EXTT2=
EXTT3=
EXTT4=
EXTT5=
EXTT6=
EXTT7=
EXTT8=
EXTT9=
PLAYORDER=
